# xmcd
#
# Track frame offsets:
#	150
#	11895
#	27007
#	39020
#	49090
#	69837
#	89127
#	104990
#	117392
#	132137
#	148740
#	165407
#	182422
#	192667
#	208437
#	220302
#	232117
#	245567
#	256665
#	268367
#
# Disc length: 3856 seconds
#
# Revision: 4
# Processed by: cddbd v1.5.2PL0 Copyright (c) Steve Scherf et al.
# Submitted via: EZCDAudioConverter 2.1.7.1
#
DISCID=330f0e14
DTITLE=The Cure - Three Imaginary Boys 2/2
DYEAR=1979
DGENRE=
TTITLE0=I Want To Be Old [Studio Demo]
TTITLE1=I'm Cold [Studio Demo]
TTITLE2=Heroin Face [Live]
TTITLE3=I Just Need Myself [Studio Demo]
TTITLE4=10:15 Saturday Night [Home Demo]
TTITLE5=The Cocktail Party [Home Demo]
TTITLE6=Grinding Halt [Home Demo]
TTITLE7=Boys Don't Cry [Studio Demo]
TTITLE8=It's Not You [Studio Demo]
TTITLE9=10:15 Saturday Night [Studio Demo]
TTITLE10=Fire In Cairo [Studio Demo]
TTITLE11=Winter [Studio Out-Take]
TTITLE12=Faded Smiles aka I Don't Know [Studio Out-Take]
TTITLE13=Play With Me [Studio Out-Take]
TTITLE14=World War [Rare Album Track]
TTITLE15=Boys Don't Cry [Extra Album Track]
TTITLE16=Jumping Someone Else's Train [Extra Album Track]
TTITLE17=Subway Song [Live]
TTITLE18=Accuracy [Live]
TTITLE19=10:15 Saturday Night [Live]
EXTD=
EXTT0=
EXTT1=
EXTT2=
EXTT3=
EXTT4=
EXTT5=
EXTT6=
EXTT7=
EXTT8=
EXTT9=
EXTT10=
EXTT11=
EXTT12=
EXTT13=
EXTT14=
EXTT15=
EXTT16=
EXTT17=
EXTT18=
EXTT19=
PLAYORDER=
